<svg id="Component_94_1" data-name="Component 94 – 1" xmlns="http://www.w3.org/2000/svg" width="160" height="50" viewBox="0 0 160 50">
  <g id="Rectangle_835" data-name="Rectangle 835" fill="none" stroke="#2c2c2c" stroke-width="1">
    <rect width="160" height="50" rx="10" stroke="none"/>
    <rect x="0.5" y="0.5" width="159" height="49" rx="9.5" fill="none"/>
  </g>
  <g id="Group_215" data-name="Group 215" transform="translate(16.878 11.063)">
    <g id="Group_214" data-name="Group 214">
      <g id="Group_212" data-name="Group 212" transform="translate(0 0.695)">
        <g id="XMLID_2_">
          <g id="XMLID_3_">
            <g id="XMLID_4_">
              <path id="XMLID_6_" d="M26,18.277a5.738,5.738,0,0,1,2.78-4.866,5.839,5.839,0,0,0-4.727-2.5c-1.946-.278-3.892,1.251-4.866,1.251s-2.641-1.112-4.31-1.112a6.092,6.092,0,0,0-5.283,3.2c-2.224,4.032-.556,9.731,1.668,12.929,1.112,1.529,2.363,3.336,4.032,3.2,1.668,0,2.224-1.112,4.31-1.112,1.946,0,2.5,1.112,4.31.973,1.807,0,2.919-1.529,3.892-3.2a14.736,14.736,0,0,0,1.807-3.614A5.4,5.4,0,0,1,26,18.277Z" transform="translate(-8.544 -4.515)" fill="#333"/>
              <path id="XMLID_5_" d="M19.858,10.471A6.3,6.3,0,0,0,21.249,6.3,5.271,5.271,0,0,0,17.5,8.246a5.7,5.7,0,0,0-1.39,4.032A4.664,4.664,0,0,0,19.858,10.471Z" transform="translate(-5.601 -6.3)" fill="#333"/>
            </g>
          </g>
        </g>
      </g>
      <g id="XMLID_1_" transform="translate(28.159)">
        <g id="Group_213" data-name="Group 213">
          <path id="Path_530" data-name="Path 530" d="M31.024,13.351V7.373H28.8V6.4h5.561v.973H32.136V13.49H31.024Z" transform="translate(-28.8 -5.566)" fill="#333"/>
          <path id="Path_531" data-name="Path 531" d="M37.866,12.195A2.206,2.206,0,0,1,35.5,13.724a2.49,2.49,0,0,1-2.5-2.78,2.49,2.49,0,0,1,2.5-2.78c1.529,0,2.363.973,2.363,2.641v.417H34.112a1.355,1.355,0,0,0,1.39,1.529c.7,0,1.112-.278,1.251-.7h1.112Zm-3.753-1.668h2.641A1.284,1.284,0,0,0,35.5,9.136,1.313,1.313,0,0,0,34.112,10.527Zm.7-3.058L36.058,5.8H37.31l-1.39,1.668Z" transform="translate(-27.161 -5.8)" fill="#333"/>
          <path id="Path_532" data-name="Path 532" d="M37.6,6.1h1.112v7.368H37.6Z" transform="translate(-25.366 -5.683)" fill="#333"/>
          <path id="Path_533" data-name="Path 533" d="M44.166,12.195A2.206,2.206,0,0,1,41.8,13.724a2.49,2.49,0,0,1-2.5-2.78,2.49,2.49,0,0,1,2.5-2.78c1.529,0,2.363.973,2.363,2.641v.417H40.412a1.355,1.355,0,0,0,1.39,1.529c.7,0,1.112-.278,1.251-.7h1.112Zm-3.753-1.668h2.641A1.284,1.284,0,0,0,41.8,9.136,1.489,1.489,0,0,0,40.412,10.527Zm.834-3.058L42.5,5.8h1.251l-1.39,1.668Z" transform="translate(-24.703 -5.8)" fill="#333"/>
          <path id="Path_534" data-name="Path 534" d="M47.453,9.446A1.218,1.218,0,0,0,46.2,8.473c-.834,0-1.39.7-1.39,1.807s.556,1.807,1.39,1.807a1.118,1.118,0,0,0,1.251-.834h.973A2.041,2.041,0,0,1,46.2,13.061a2.49,2.49,0,0,1-2.5-2.78A2.49,2.49,0,0,1,46.2,7.5a2.051,2.051,0,0,1,2.224,1.807h-.973Z" transform="translate(-22.986 -5.137)" fill="#333"/>
          <path id="Path_535" data-name="Path 535" d="M48.1,6.1h1.112V9.019h.139a1.769,1.769,0,0,1,1.668-.973,1.722,1.722,0,0,1,1.807,1.946v3.475H51.714V10.41c0-.834-.417-1.251-1.112-1.251a1.313,1.313,0,0,0-1.39,1.39v3.058H48.1Z" transform="translate(-21.27 -5.683)" fill="#333"/>
          <path id="Path_536" data-name="Path 536" d="M52.4,11.532c0-.973.7-1.529,1.946-1.529l1.39-.139V9.307c0-.556-.417-.834-1.112-.834a1.243,1.243,0,0,0-1.112.556h-.973c.139-.973.973-1.529,2.224-1.529,1.39,0,2.085.7,2.085,1.807v3.614h-.973v-.7h-.139a1.681,1.681,0,0,1-1.668.834A1.5,1.5,0,0,1,52.4,11.532Zm3.475-.556v-.417l-1.251.139c-.7,0-1.112.278-1.112.834,0,.417.417.7.973.7A1.371,1.371,0,0,0,55.875,10.975Z" transform="translate(-19.592 -5.137)" fill="#333"/>
          <path id="Path_537" data-name="Path 537" d="M56.839,7.639h.973v.834h.139a1.381,1.381,0,0,1,1.39-.973h.417v.973H59.2a1.284,1.284,0,0,0-1.39,1.251v3.2H56.7V7.639Z" transform="translate(-17.914 -5.137)" fill="#333"/>
          <path id="Path_538" data-name="Path 538" d="M59.778,13.439H60.89c.139.417.556.7,1.251.7.834,0,1.39-.417,1.39-1.112v-.973h-.139a1.82,1.82,0,0,1-1.668.834c-1.39,0-2.224-1.112-2.224-2.641,0-1.668.834-2.641,2.224-2.641a1.929,1.929,0,0,1,1.668.973h.139V7.6H64.5v5.422c0,1.251-.973,1.946-2.5,1.946C60.751,14.968,59.778,14.412,59.778,13.439Zm3.614-3.2c0-1.112-.556-1.807-1.39-1.807-.973,0-1.39.7-1.39,1.807s.556,1.807,1.39,1.807A1.593,1.593,0,0,0,63.392,10.241Z" transform="translate(-16.822 -5.098)" fill="#333"/>
          <path id="Path_539" data-name="Path 539" d="M68.866,11.532A2.206,2.206,0,0,1,66.5,13.061,2.49,2.49,0,0,1,64,10.28,2.49,2.49,0,0,1,66.5,7.5c1.529,0,2.363.973,2.363,2.641v.417H65.112a1.355,1.355,0,0,0,1.39,1.529c.7,0,1.112-.278,1.251-.7h1.112ZM65.251,9.863h2.641a1.284,1.284,0,0,0-1.251-1.39A1.313,1.313,0,0,0,65.251,9.863Z" transform="translate(-15.066 -5.137)" fill="#333"/>
          <path id="Path_540" data-name="Path 540" d="M68.639,7.639h.973v.834h.139a1.381,1.381,0,0,1,1.39-.973h.417v.973H71a1.284,1.284,0,0,0-1.39,1.251v3.2H68.5V7.639Z" transform="translate(-13.31 -5.137)" fill="#333"/>
          <path id="Path_541" data-name="Path 541" d="M73.5,10.827c0-1.668.834-2.78,2.224-2.78a1.686,1.686,0,0,1,1.668.973h.139V6.1h1.112v7.368h-.973v-.834h-.139a1.929,1.929,0,0,1-1.668.973C74.334,13.607,73.5,12.495,73.5,10.827Zm1.112,0c0,1.112.556,1.807,1.39,1.807s1.39-.7,1.39-1.807S76.836,9.019,76,9.019,74.612,9.714,74.612,10.827Z" transform="translate(-11.359 -5.683)" fill="#333"/>
          <path id="Path_542" data-name="Path 542" d="M78.1,11.532c0-.973.7-1.529,1.946-1.529l1.39-.139V9.307c0-.556-.417-.834-1.112-.834a1.243,1.243,0,0,0-1.112.556h-.973c.139-.973.973-1.529,2.224-1.529,1.39,0,2.085.7,2.085,1.807v3.614h-.973v-.7h-.139a1.681,1.681,0,0,1-1.668.834A1.5,1.5,0,0,1,78.1,11.532Zm3.475-.556v-.417l-1.251.139c-.7,0-1.112.278-1.112.834,0,.417.417.7.973.7A1.371,1.371,0,0,0,81.575,10.975Z" transform="translate(-9.564 -5.137)" fill="#333"/>
          <path id="Path_543" data-name="Path 543" d="M82.5,7.639h.973v.834h.139A1.709,1.709,0,0,1,85.141,7.5c1.251,0,1.807.7,1.807,1.946v3.475h-.973V9.863c0-.834-.417-1.251-1.112-1.251A1.284,1.284,0,0,0,83.612,10v3.058H82.5V7.639Z" transform="translate(-7.848 -5.137)" fill="#333"/>
          <path id="Path_544" data-name="Path 544" d="M88.924,7.5c1.251,0,1.946.556,2.085,1.529h-.973c-.139-.417-.417-.7-1.112-.7-.556,0-.973.278-.973.7,0,.278.278.556.834.7l.834.139c.973.278,1.529.7,1.529,1.39,0,.973-.973,1.668-2.224,1.668s-2.085-.556-2.224-1.529h1.112a1.1,1.1,0,0,0,1.112.7c.7,0,1.112-.278,1.112-.7,0-.278-.278-.556-.834-.7l-.973-.278c-.973-.278-1.529-.7-1.529-1.529A2.4,2.4,0,0,1,88.924,7.5Z" transform="translate(-6.209 -5.137)" fill="#333"/>
        </g>
      </g>
    </g>
  </g>
  <g id="Group_217" data-name="Group 217" transform="translate(46.705 22.74)">
    <g id="Group_216" data-name="Group 216">
      <path id="Path_545" data-name="Path 545" d="M30,14.3h2.224V29.036H30Z" transform="translate(-30 -14.161)" fill="#333"/>
      <path id="Path_546" data-name="Path 546" d="M33.5,19.722,34.751,14.3h2.085l-1.39,5.422Z" transform="translate(-28.634 -14.161)" fill="#333"/>
      <path id="Path_547" data-name="Path 547" d="M44.514,25H38.953l-1.39,4.032H35.2L40.483,14.3h2.5l5.283,14.736H45.9Zm-5-1.807h4.449L41.734,16.8h0Z" transform="translate(-27.971 -14.161)" fill="#333"/>
      <path id="Path_548" data-name="Path 548" d="M55.709,22.522c0,3.336-1.807,5.422-4.449,5.422a3.588,3.588,0,0,1-3.336-1.807h0v5.283H45.7V17.239h2.085v1.807h0A3.919,3.919,0,0,1,51.261,17.1C53.9,17.1,55.709,19.185,55.709,22.522Zm-2.363,0c0-2.224-1.112-3.614-2.78-3.614s-2.78,1.39-2.78,3.614,1.112,3.614,2.78,3.614S53.346,24.746,53.346,22.522Z" transform="translate(-23.874 -13.068)" fill="#333"/>
      <path id="Path_549" data-name="Path 549" d="M64.209,22.522c0,3.336-1.807,5.422-4.449,5.422a3.588,3.588,0,0,1-3.336-1.807h0v5.283H54.2V17.239h2.085v1.807h0A3.919,3.919,0,0,1,59.761,17.1C62.4,17.1,64.209,19.185,64.209,22.522Zm-2.363,0c0-2.224-1.112-3.614-2.78-3.614s-2.78,1.39-2.78,3.614,1.112,3.614,2.78,3.614S61.846,24.746,61.846,22.522Z" transform="translate(-20.558 -13.068)" fill="#333"/>
      <path id="Path_550" data-name="Path 550" d="M67.585,24.9c.139,1.39,1.529,2.363,3.475,2.363,1.807,0,3.2-.973,3.2-2.224,0-1.112-.834-1.807-2.78-2.224L69.532,22.4c-2.641-.7-3.892-1.946-3.892-3.892,0-2.5,2.224-4.31,5.422-4.31,3.058,0,5.283,1.807,5.283,4.31H74.119c-.139-1.529-1.39-2.363-3.058-2.363s-2.919.834-2.919,2.224c0,.973.834,1.668,2.641,2.085l1.668.417c3.058.7,4.31,1.946,4.31,4.032,0,2.78-2.224,4.449-5.7,4.449-3.2,0-5.422-1.668-5.561-4.31h2.085Z" transform="translate(-16.149 -14.2)" fill="#333"/>
      <path id="Path_551" data-name="Path 551" d="M77.992,15.3v2.5h2.085V19.61H77.992v5.839c0,.973.417,1.39,1.251,1.39h.7v1.668c-.278,0-.7.139-1.251.139-2.224,0-3.058-.834-3.058-2.919V19.61H74.1V17.8h1.529V15.3Z" transform="translate(-12.793 -13.771)" fill="#333"/>
      <path id="Path_552" data-name="Path 552" d="M79.2,22.522c0-3.336,1.946-5.422,5.144-5.422,3.058,0,5.144,2.085,5.144,5.422s-1.946,5.422-5.144,5.422C81.146,28.082,79.2,26,79.2,22.522Zm7.924,0c0-2.363-1.112-3.614-2.78-3.614-1.807,0-2.78,1.39-2.78,3.614,0,2.363,1.112,3.614,2.78,3.614C86.151,26.275,87.124,24.885,87.124,22.522Z" transform="translate(-10.803 -13.068)" fill="#333"/>
      <path id="Path_553" data-name="Path 553" d="M87.839,17.239h2.085v1.807h0A2.463,2.463,0,0,1,92.566,17.1a1.042,1.042,0,0,1,.7.139v2.085c-.139-.139-.556-.139-.973-.139a2.3,2.3,0,0,0-2.363,2.5v6.395H87.7V17.239Z" transform="translate(-7.487 -13.068)" fill="#333"/>
      <path id="Path_554" data-name="Path 554" d="M101.792,24.746c-.278,1.946-2.224,3.336-4.588,3.336-3.058,0-5-2.085-5-5.422s1.946-5.561,5-5.561c2.919,0,4.866,2.085,4.866,5.283v.7H94.424v.139a2.811,2.811,0,0,0,2.919,3.058,2.382,2.382,0,0,0,2.5-1.529Zm-7.507-3.2h5.422a2.593,2.593,0,0,0-2.641-2.78A2.99,2.99,0,0,0,94.285,21.549Z" transform="translate(-5.731 -13.068)" fill="#333"/>
    </g>
  </g>
</svg>
