<svg id="Component_95_1" data-name="Component 95 – 1" xmlns="http://www.w3.org/2000/svg" width="160" height="50" viewBox="0 0 160 50">
  <g id="Rectangle_836" data-name="Rectangle 836" fill="none" stroke="#2c2c2c" stroke-width="1">
    <rect width="160" height="50" rx="10" stroke="none"/>
    <rect x="0.5" y="0.5" width="159" height="49" rx="9.5" fill="none"/>
  </g>
  <path id="Path_556" data-name="Path 556" d="M62.606,18.444a4.6,4.6,0,0,0-4.727,4.727,4.727,4.727,0,0,0,9.453,0A4.688,4.688,0,0,0,62.606,18.444Zm0,7.646a2.714,2.714,0,0,1-2.641-2.919,2.8,2.8,0,0,1,2.641-2.919,2.714,2.714,0,0,1,2.641,2.919A2.713,2.713,0,0,1,62.606,26.09ZM52.319,18.444a4.6,4.6,0,0,0-4.727,4.727,4.727,4.727,0,0,0,9.453,0A4.688,4.688,0,0,0,52.319,18.444Zm0,7.646a2.714,2.714,0,0,1-2.641-2.919,2.8,2.8,0,0,1,2.641-2.919A2.714,2.714,0,0,1,54.96,23.17,2.8,2.8,0,0,1,52.319,26.09ZM39.946,19.973v1.946h4.727a4.2,4.2,0,0,1-1.112,2.5,4.993,4.993,0,0,1-3.753,1.529,5.283,5.283,0,0,1,0-10.565,5.035,5.035,0,0,1,3.614,1.39l1.39-1.39a7.23,7.23,0,0,0-5-2.085A7.538,7.538,0,0,0,32.3,20.668a7.447,7.447,0,0,0,7.507,7.368,6.5,6.5,0,0,0,5.144-2.085,6.411,6.411,0,0,0,1.668-4.727,3.849,3.849,0,0,0-.139-1.251H39.946ZM90.27,21.5a4.31,4.31,0,0,0-4.032-3.058A4.463,4.463,0,0,0,81.79,23.17,4.6,4.6,0,0,0,86.517,27.9a4.529,4.529,0,0,0,3.892-2.085l-1.529-.973a2.575,2.575,0,0,1-2.363,1.251,2.144,2.144,0,0,1-2.224-1.39l6.256-2.641Zm-6.395,1.529a2.649,2.649,0,0,1,2.5-2.78,2,2,0,0,1,1.807.973Zm-5.144,4.588h2.085v-13.9H78.732ZM75.4,19.556h0a3.524,3.524,0,0,0-2.5-1.112,4.729,4.729,0,0,0,0,9.453,3.274,3.274,0,0,0,2.5-1.112h.139v.7c0,1.807-.973,2.78-2.5,2.78a2.661,2.661,0,0,1-2.363-1.668l-1.807.7a4.589,4.589,0,0,0,4.171,2.78c2.5,0,4.449-1.39,4.449-4.866v-8.48H75.534v.834Zm-2.5,6.534a2.763,2.763,0,0,1-2.641-2.78,2.8,2.8,0,0,1,2.641-2.919,2.7,2.7,0,0,1,2.5,2.919A2.485,2.485,0,0,1,72.893,26.09ZM100,13.856H95v13.9h2.085V22.475H100a4.318,4.318,0,1,0,0-8.619Zm.139,6.673H97.221V15.663h2.919a2.338,2.338,0,0,1,2.363,2.363A2.453,2.453,0,0,1,100.141,20.529Zm12.79-2.085a4.1,4.1,0,0,0-3.753,2.085l1.807.834a1.867,1.867,0,0,1,1.946-.973,2.041,2.041,0,0,1,2.224,1.807v.139a3.929,3.929,0,0,0-2.224-.556c-1.946,0-4.032,1.112-4.032,3.058a3.278,3.278,0,0,0,3.475,3.058,2.687,2.687,0,0,0,2.641-1.39h.139v1.112H117.1V22.336C117.1,19.834,115.294,18.444,112.93,18.444Zm-.278,7.646c-.7,0-1.668-.278-1.668-1.112,0-1.112,1.112-1.529,2.224-1.529a3.682,3.682,0,0,1,1.946.417A2.546,2.546,0,0,1,112.652,26.09Zm11.816-7.368L122.105,24.7h-.139l-2.5-5.978H117.24l3.753,8.341-2.085,4.727h2.224l5.7-13.068Zm-18.767,8.9h2.085v-13.9H105.7Z" transform="translate(17.603 8.189)" fill="#333"/>
  <g id="Group_222" data-name="Group 222" transform="translate(16.121 11.008)">
    <g id="Group_221" data-name="Group 221">
      <g id="Group_220" data-name="Group 220">
        <g id="Group_219" data-name="Group 219">
          <path id="Path_557" data-name="Path 557" d="M21.346,19.268,8.139,6.2c0,.278-.139.556-.139.834V31.5a1.763,1.763,0,0,0,.139.834Z" transform="translate(-8 -5.589)" fill="#333"/>
          <path id="Path_558" data-name="Path 558" d="M22.432,20.863l5.144-2.919a1.3,1.3,0,0,0,.834-1.112,1.3,1.3,0,0,0-.834-1.112L22.432,12.8,18.4,16.832Z" transform="translate(-3.942 -3.014)" fill="#333"/>
          <path id="Path_559" data-name="Path 559" d="M8.6,29.129a2.539,2.539,0,0,0,1.251-.278l15.57-8.9L21.668,16.2Z" transform="translate(-7.766 -1.688)" fill="#333"/>
          <path id="Path_560" data-name="Path 560" d="M8.6,5.815,21.529,18.744l3.892-3.892L9.851,6.093A1.418,1.418,0,0,0,8.6,5.815Z" transform="translate(-7.766 -5.761)" fill="#333"/>
        </g>
      </g>
    </g>
  </g>
  <g id="Group_223" data-name="Group 223" transform="translate(50.459 10.09)">
    <path id="Path_561" data-name="Path 561" d="M32.7,11.973V5.3h2.085a3.328,3.328,0,0,1,3.475,3.336A2.864,2.864,0,0,1,37.288,11a3.449,3.449,0,0,1-2.5.973H32.7Zm.834-.834h1.251a2.4,2.4,0,0,0,1.807-.7,2.643,2.643,0,0,0,.7-1.807,2.4,2.4,0,0,0-.7-1.807,2.643,2.643,0,0,0-1.807-.7H33.534Z" transform="translate(-32.7 -5.022)" fill="#333"/>
    <path id="Path_562" data-name="Path 562" d="M37.4,11.973V5.3h.834v6.673Z" transform="translate(-30.866 -5.022)" fill="#333"/>
    <path id="Path_563" data-name="Path 563" d="M41.163,12.19a2.682,2.682,0,0,1-1.39-.417,2.131,2.131,0,0,1-.973-1.39l.834-.278a2.241,2.241,0,0,0,.556.973,1.262,1.262,0,0,0,.973.417,2.009,2.009,0,0,0,.973-.278.841.841,0,0,0,.417-.834.841.841,0,0,0-.417-.834,1.872,1.872,0,0,0-1.251-.7,4.348,4.348,0,0,1-1.39-.7,1.941,1.941,0,0,1-.417-1.251,1.7,1.7,0,0,1,.556-1.251A1.9,1.9,0,0,1,41.163,5.1a2.349,2.349,0,0,1,1.39.417,1.609,1.609,0,0,1,.7.973l-.834.278c0-.278-.139-.417-.417-.556a1.39,1.39,0,0,0-1.668,0,.764.764,0,0,0-.417.7c0,.278.139.417.278.7a6.777,6.777,0,0,0,.973.417c.278.139.556.139.834.278s.417.278.7.417a2.441,2.441,0,0,1,.556.7,1.763,1.763,0,0,1,.139.834,1.763,1.763,0,0,1-.139.834,1.085,1.085,0,0,1-.556.556c-.278.139-.417.278-.7.278S41.441,12.19,41.163,12.19Z" transform="translate(-30.32 -5.1)" fill="#333"/>
    <path id="Path_564" data-name="Path 564" d="M43.834,11.973H43V5.3h2.224a2.091,2.091,0,0,1,1.529.556,1.785,1.785,0,0,1,.556,1.39,1.785,1.785,0,0,1-.556,1.39,2.091,2.091,0,0,1-1.529.556h-1.39Zm0-3.614h1.39a.841.841,0,0,0,.834-.417,1.021,1.021,0,0,0,.278-.834,1.976,1.976,0,0,0-.278-.834,1.2,1.2,0,0,0-.834-.417h-1.39Z" transform="translate(-28.681 -5.022)" fill="#333"/>
    <path id="Path_565" data-name="Path 565" d="M52.478,11.078a3.477,3.477,0,0,1-5.978-2.5,3.477,3.477,0,1,1,6.951,0A2.974,2.974,0,0,1,52.478,11.078Zm-4.31-.556a2.3,2.3,0,0,0,1.807.7,2.6,2.6,0,0,0,1.946-.7,2.421,2.421,0,0,0,.7-1.946,3.014,3.014,0,0,0-.7-1.946,2.942,2.942,0,0,0-1.946-.556,2.643,2.643,0,0,0-1.807.7,2.421,2.421,0,0,0-.7,1.946A2.4,2.4,0,0,0,48.168,10.522Z" transform="translate(-27.316 -5.1)" fill="#333"/>
    <path id="Path_566" data-name="Path 566" d="M52.4,11.973V5.3h.973l3.336,5.144h0V5.3h.834v6.673H56.71L53.234,6.551h0v5.422Z" transform="translate(-25.014 -5.022)" fill="#333"/>
    <path id="Path_567" data-name="Path 567" d="M57.2,11.973V5.3h.834v6.673Z" transform="translate(-23.141 -5.022)" fill="#333"/>
    <path id="Path_568" data-name="Path 568" d="M58.9,11.973V5.3h2.363a1.785,1.785,0,0,1,1.39.556,1.355,1.355,0,0,1,.556,1.251,1.976,1.976,0,0,1-.278.834,1.388,1.388,0,0,1-.7.556h0a2.908,2.908,0,0,1,.834.556,1.173,1.173,0,0,1,.278.973A1.9,1.9,0,0,1,61.4,11.973H58.9Zm.834-3.892h1.529A1.976,1.976,0,0,0,62.1,7.8c.139-.278.278-.417.278-.7a1.062,1.062,0,0,0-.278-.7c-.139-.278-.417-.278-.7-.278H59.873V8.08Zm0,3.058H61.4a1.976,1.976,0,0,0,.834-.278c.139-.278.278-.417.278-.7a1.062,1.062,0,0,0-.278-.7.762.762,0,0,0-.834-.556H59.734Z" transform="translate(-22.477 -5.022)" fill="#333"/>
    <path id="Path_569" data-name="Path 569" d="M63,11.973V5.3h.834v5.839h2.919v.834Z" transform="translate(-20.878 -5.022)" fill="#333"/>
    <path id="Path_570" data-name="Path 570" d="M70.392,6.134H67.334V8.219h2.78v.834h-2.78v2.085h3.058v.834H66.5V5.3h3.892Z" transform="translate(-19.512 -5.022)" fill="#333"/>
    <path id="Path_571" data-name="Path 571" d="M73.663,12.151a2.682,2.682,0,0,1-1.39-.417,2.131,2.131,0,0,1-.973-1.39l.834-.278a2.241,2.241,0,0,0,.556.973,1.262,1.262,0,0,0,.973.417,2.009,2.009,0,0,0,.973-.278,1.848,1.848,0,0,0,.417-.973.841.841,0,0,0-.417-.834,5.448,5.448,0,0,0-1.251-.556,4.348,4.348,0,0,1-1.39-.7,1.579,1.579,0,0,1-.417-1.112,1.7,1.7,0,0,1,.556-1.251A1.9,1.9,0,0,1,73.663,5.2a2.349,2.349,0,0,1,1.39.417,1.609,1.609,0,0,1,.7.973l-.834.278c0-.278-.139-.417-.417-.556a1.39,1.39,0,0,0-1.668,0,.765.765,0,0,0-.417.7c0,.278.139.417.278.7a3.536,3.536,0,0,1,.973.278c.278.139.556.139.834.278s.417.278.7.417.417.417.556.556a1.763,1.763,0,0,1,.139.834,1.763,1.763,0,0,1-.139.834,1.085,1.085,0,0,1-.556.556c-.278.139-.417.278-.7.278A1.2,1.2,0,0,1,73.663,12.151Z" transform="translate(-17.639 -5.061)" fill="#333"/>
    <path id="Path_572" data-name="Path 572" d="M77.8,12.112a2.643,2.643,0,0,1-1.807-.7,2.75,2.75,0,0,1-.7-1.946V5.3h.973V9.471a1.7,1.7,0,0,0,.417,1.251,1.762,1.762,0,0,0,1.251.556,1.355,1.355,0,0,0,1.251-.556,1.7,1.7,0,0,0,.417-1.251V5.3h.834V9.471a3.014,3.014,0,0,1-.7,1.946A3.014,3.014,0,0,1,77.8,12.112Z" transform="translate(-16.079 -5.022)" fill="#333"/>
    <path id="Path_573" data-name="Path 573" d="M79.9,11.973V5.3h2.224a2.091,2.091,0,0,1,1.529.556,1.785,1.785,0,0,1,.556,1.39A2.242,2.242,0,0,1,83.792,8.5a1.91,1.91,0,0,1-1.112.7h0l1.807,2.641h-.973L81.707,9.192h-.973v2.641H79.9ZM80.734,8.5h1.39a1.491,1.491,0,0,0,.834-.278,1.2,1.2,0,0,0,.417-.834,1.976,1.976,0,0,0-.278-.834,1.262,1.262,0,0,0-.973-.417h-1.39Z" transform="translate(-14.284 -5.022)" fill="#333"/>
  </g>
</svg>
