<svg xmlns="http://www.w3.org/2000/svg" width="30.091" height="29.471" viewBox="0 0 30.091 29.471">
  <g id="Group_92" data-name="Group 92" transform="translate(-41.963 -78.28)">
    <path id="Path_420" data-name="Path 420" d="M72.054,92.689c0,5.542-1.988,8.7-5.021,8.7a3.219,3.219,0,0,1-3.423-3.488v-.685a7.482,7.482,0,0,1-6.944,4.173c-4.629,0-8.117-3.521-8.117-8.476,0-4.923,3.488-8.443,8.117-8.443a7.5,7.5,0,0,1,6.912,4.075V84.6h1.5V97.482c0,1.858.946,2.575,2.152,2.575,2.119,0,3.554-2.64,3.554-7.335,0-7.923-5.64-13.2-13.725-13.2C48.907,79.519,43.3,85,43.3,92.982c0,7.955,5.542,13.5,13.627,13.5a13.7,13.7,0,0,0,6.227-1.434l.424,1.207a15.364,15.364,0,0,1-6.651,1.5c-8.834,0-14.964-6.1-14.964-14.769,0-8.7,6.227-14.7,15.095-14.7C65.827,78.28,72.054,84.115,72.054,92.689Zm-8.443.228c0-4.238-2.9-7.075-6.781-7.075s-6.748,2.869-6.748,7.075,2.869,7.107,6.748,7.107S63.61,97.156,63.61,92.917Z" fill="#4a4a4a"/>
  </g>
</svg>
