<svg id="Lock" xmlns="http://www.w3.org/2000/svg" width="20.14" height="25.841" viewBox="0 0 20.14 25.841">
  <path id="Path_428" data-name="Path 428" d="M180.519,193h-.128v-1.97a8.376,8.376,0,0,0-16.752,0V193h-.128a1.568,1.568,0,0,0-1.566,1.566v3.859a10.11,10.11,0,0,0,9.932,10.07h.133a9.872,9.872,0,0,0,6.965-2.9,10.456,10.456,0,0,0,3.11-7.391v-3.635A1.568,1.568,0,0,0,180.519,193Zm-16.1-1.97a7.593,7.593,0,0,1,15.187,0V193h-1.772v-1.97a5.821,5.821,0,0,0-11.642,0V193h-1.772Zm2.556,1.97v-1.97a5.038,5.038,0,1,1,10.076,0V193Zm14.325,5.2a9.671,9.671,0,0,1-2.876,6.834,9.057,9.057,0,0,1-6.538,2.676,9.323,9.323,0,0,1-9.16-9.286v-3.859a.784.784,0,0,1,.783-.783h17.008a.784.784,0,0,1,.783.783Z" transform="translate(-161.945 -182.655)" fill="#777"/>
  <path id="Path_429" data-name="Path 429" d="M178.971,208.65a1.96,1.96,0,0,0-1.957,1.957,1.933,1.933,0,0,0,.581,1.384l-.575,3.211a.392.392,0,0,0,.385.46h3.133a.391.391,0,0,0,.385-.46l-.575-3.211a1.935,1.935,0,0,0,.581-1.384A1.96,1.96,0,0,0,178.971,208.65Zm.567,3.262.531,2.968h-2.2l.532-2.968a.392.392,0,0,0-.146-.379,1.175,1.175,0,1,1,1.426,0A.392.392,0,0,0,179.538,211.912Z" transform="translate(-168.902 -194.655)" fill="#777"/>
</svg>
