<svg xmlns="http://www.w3.org/2000/svg" width="16.392" height="27.974" viewBox="0 0 16.392 27.974">
  <g id="Mobile" transform="translate(0)">
    <path id="Path_232" data-name="Path 232" d="M298.7,364.353H288.453a3.078,3.078,0,0,1-3.074-3.074V339.453a3.078,3.078,0,0,1,3.074-3.074H298.7a3.078,3.078,0,0,1,3.074,3.074v21.826A3.078,3.078,0,0,1,298.7,364.353Zm-10.243-26.935a2.037,2.037,0,0,0-2.035,2.035v21.826a2.037,2.037,0,0,0,2.035,2.035H298.7a2.037,2.037,0,0,0,2.035-2.035V339.453a2.037,2.037,0,0,0-2.035-2.035Z" transform="translate(-285.379 -336.379)" fill="#777"/>
    <rect id="Rectangle_89" data-name="Rectangle 89" width="3.452" height="0.88" rx="0.44" transform="translate(6.47 2.081)" fill="#777"/>
    <rect id="Rectangle_90" data-name="Rectangle 90" width="2.254" height="2.254" rx="1.127" transform="translate(9.323 25.747) rotate(180)" fill="#777"/>
  </g>
</svg>
