<?xml version="1.0" encoding="utf-8"?>
<!-- Generator: Adobe Illustrator 25.4.1, SVG Export Plug-In . SVG Version: 6.00 Build 0)  -->
<svg version="1.1" id="Calque_1" xmlns="http://www.w3.org/2000/svg" xmlns:xlink="http://www.w3.org/1999/xlink" x="0px" y="0px"
	 viewBox="0 0 74.8 74.8" style="enable-background:new 0 0 74.8 74.8;" xml:space="preserve">
<style type="text/css">
	.st0{fill:#263238;}
</style>
<g>
	<path class="st0" d="M3.9,37.4C3.9,19,19,3.9,37.4,3.9c0,0,0.1,0,0.1,0c8.8,0,17,3.4,23.3,9.6l1.3,1.3h-6.8c-0.9,0-1.6,0.7-1.6,1.6
		c0,0.9,0.7,1.6,1.6,1.6h10.9c0.9,0,1.6-0.7,1.6-1.6V5.5c0-0.9-0.7-1.6-1.6-1.6c-0.9,0-1.6,0.7-1.6,1.6v7.4l-1.3-1.3
		C56.5,4.6,47.1,0.7,37.4,0.8C17.2,0.8,0.8,17.2,0.8,37.4c0,3.6,0.5,7.1,1.6,10.6l0,0.1c0.2,0.6,0.8,1,1.5,1c0,0,0,0,0,0
		c0.2,0,0.3,0,0.5-0.1c0.4-0.1,0.7-0.4,0.9-0.8s0.2-0.8,0.1-1.2C4.4,43.9,3.9,40.7,3.9,37.4z"/>
	<polygon class="st0" points="49.6,46 49.6,30.5 55.6,30.5 55.6,27.8 40,27.8 40,30.5 45.9,30.5 45.9,46 	"/>
	<path class="st0" d="M33.5,28.9c-1.6-0.8-3.5-1.1-5.3-1.1l-7.3,0V46l7.3,0c1.9,0.1,3.7-0.3,5.4-1.1c1.4-0.7,2.5-1.7,3.3-3.1
		c0.8-1.5,1.2-3.2,1.2-4.9c0-1.7-0.4-3.4-1.2-4.9C36.1,30.6,34.9,29.6,33.5,28.9z M32.8,41.7L32.8,41.7c-1.3,1.1-2.8,1.7-4.4,1.7
		c-0.2,0-0.3,0-0.5,0l-3.2,0v-13h3.3c1.7-0.1,3.5,0.4,4.8,1.6l0.1,0.1c1.2,1.3,1.7,3.1,1.6,4.8C34.5,38.6,33.9,40.4,32.8,41.7z"/>
	<path class="st0" d="M72.5,26.8c-0.3-0.9-1.1-1.3-2-1.1c-0.4,0.1-0.7,0.4-0.9,0.8s-0.2,0.8-0.1,1.2c0.9,3.1,1.4,6.4,1.4,9.7
		c0,18.4-15,33.4-33.5,33.5c0,0-0.1,0-0.1,0c-8.8,0-17-3.4-23.3-9.6L12.7,60h6.8c0.9,0,1.6-0.7,1.6-1.6c0-0.9-0.7-1.6-1.6-1.6H8.6
		c-0.9,0-1.6,0.7-1.6,1.6v10.9c0,0.9,0.7,1.6,1.6,1.6c0.9,0,1.6-0.7,1.6-1.6v-7.4l1.3,1.3C18.2,70.1,27.6,74,37.2,74
		c0,0,0.1,0,0.1,0C57.6,74,74,57.6,74,37.4C74,33.8,73.5,30.2,72.5,26.8z"/>
</g>
</svg>
